HIERARCHY
ROOT Hips
{
	OFFSET 0.000000 83.214638 0.000000
	CHANNELS 6 Xposition Yposition Zposition Xrotation Yrotation Zrotation
	JOINT Pelvis
	{
		OFFSET 0.000000 0.000000 0.000000
		CHANNELS 3 Xrotation Yrotation Zrotation
		JOINT LeftUpLeg
		{
			OFFSET 8.479700 -4.795502 -0.379100
			CHANNELS 3 Xrotation Yrotation Zrotation
			JOINT LeftLeg
			{
				OFFSET 0.024144 -32.555107 0.112900
				CHANNELS 3 Xrotation Yrotation Zrotation
				JOINT LeftFoot
				{
					OFFSET -0.024144 -32.638630 -3.012600
					CHANNELS 3 Xrotation Yrotation Zrotation
					JOINT LeftToeBase
					{
						OFFSET 0.970200 -13.225400 11.864200
						CHANNELS 3 Xrotation Yrotation Zrotation
						End Site
						{
							OFFSET 0.000000 12.319262 0.000000
						}
					}
					JOINT LFootTongue
					{
						OFFSET 1.142400 -1.059800 6.665200
						CHANNELS 3 Xrotation Yrotation Zrotation
						End Site
						{
							OFFSET 0.000000 12.319262 0.000000
						}
					}
				}
				JOINT LeftPantLeg
				{
					OFFSET 0.918482 -16.533964 -2.284700
					CHANNELS 3 Xrotation Yrotation Zrotation
					End Site
					{
						OFFSET 0.350399 24.744368 0.000000
					}
				}
			}
		}
		JOINT RightUpLeg
		{
			OFFSET -8.479700 -4.795502 -0.379100
			CHANNELS 3 Xrotation Yrotation Zrotation
			JOINT RightLeg
			{
				OFFSET -0.023144 -32.555092 0.112900
				CHANNELS 3 Xrotation Yrotation Zrotation
				JOINT RightFoot
				{
					OFFSET 0.023144 -32.638641 -3.012700
					CHANNELS 3 Xrotation Yrotation Zrotation
					JOINT RightToeBase
					{
						OFFSET -0.970200 -13.225400 11.864200
						CHANNELS 3 Xrotation Yrotation Zrotation
						End Site
						{
							OFFSET 0.000000 12.319244 0.000000
						}
					}
					JOINT RFootTongue
					{
						OFFSET -1.142200 -1.059800 6.665200
						CHANNELS 3 Xrotation Yrotation Zrotation
						End Site
						{
							OFFSET 0.000000 12.319243 0.000000
						}
					}
				}
				JOINT RightPantLeg
				{
					OFFSET -0.919482 -16.533978 -2.284800
					CHANNELS 3 Xrotation Yrotation Zrotation
					End Site
					{
						OFFSET -0.350400 24.744419 0.000000
					}
				}
			}
		}
	}
	JOINT Spine
	{
		OFFSET 0.000000 7.722000 1.166200
		CHANNELS 3 Xrotation Yrotation Zrotation
		JOINT Spine1
		{
			OFFSET 0.000000 12.024101 0.248800
			CHANNELS 3 Xrotation Yrotation Zrotation
			JOINT Spine2
			{
				OFFSET 0.000000 11.502998 -0.491200
				CHANNELS 3 Xrotation Yrotation Zrotation
				JOINT Neck
				{
					OFFSET 0.000000 18.430702 -3.123100
					CHANNELS 3 Xrotation Yrotation Zrotation
					JOINT Head
					{
						OFFSET 0.000000 9.051102 1.034000
						CHANNELS 3 Xrotation Yrotation Zrotation
						JOINT HairB
						{
							OFFSET 0.208400 24.786102 24.822300
							CHANNELS 3 Xrotation Yrotation Zrotation
							End Site
							{
								OFFSET 0.000000 32.263779 0.000000
							}
						}
						JOINT HairA
						{
							OFFSET -7.081100 24.428299 23.196600
							CHANNELS 3 Xrotation Yrotation Zrotation
							End Site
							{
								OFFSET 0.000000 32.263779 0.000000
							}
						}
						JOINT Hat
						{
							OFFSET 16.728800 15.048294 -15.439601
							CHANNELS 3 Xrotation Yrotation Zrotation
							End Site
							{
								OFFSET 0.000000 32.263779 0.000000
							}
						}
					}
				}
				JOINT LeftShoulder
				{
					OFFSET 6.197800 13.665199 -4.064700
					CHANNELS 3 Xrotation Yrotation Zrotation
					JOINT LeftArm
					{
						OFFSET 7.778100 -0.187103 -1.709300
						CHANNELS 3 Xrotation Yrotation Zrotation
						JOINT LeftForeArm
						{
							OFFSET 22.049376 0.000000 0.000000
							CHANNELS 3 Xrotation Yrotation Zrotation
							JOINT LeftHand
							{
								OFFSET 23.009392 0.000000 0.000000
								CHANNELS 3 Xrotation Yrotation Zrotation
								JOINT LeftHandThumb1
								{
									OFFSET 3.507191 -2.063065 3.133727
									CHANNELS 3 Xrotation Yrotation Zrotation
									JOINT LeftHandThumb2
									{
										OFFSET 3.101337 -1.790558 1.790558
										CHANNELS 3 Xrotation Yrotation Zrotation
										JOINT LeftHandThumb3
										{
											OFFSET 3.058640 -1.765907 1.765906
											CHANNELS 3 Xrotation Yrotation Zrotation
											End Site
											{
												OFFSET -0.415260 3.926476 -0.049563
											}
										}
									}
								}
								JOINT LeftHandIndex1
								{
									OFFSET 11.334419 -0.901459 3.706815
									CHANNELS 3 Xrotation Yrotation Zrotation
									JOINT LeftHandIndex2
									{
										OFFSET 3.283112 0.000000 0.000000
										CHANNELS 3 Xrotation Yrotation Zrotation
										JOINT LeftHandIndex3
										{
											OFFSET 3.323853 0.000000 0.000000
											CHANNELS 3 Xrotation Yrotation Zrotation
											End Site
											{
												OFFSET -1.135597 3.097809 0.402452
											}
										}
									}
								}
								JOINT LeftHandMiddle1
								{
									OFFSET 11.335861 0.000000 0.000000
									CHANNELS 3 Xrotation Yrotation Zrotation
									JOINT LeftHandMiddle2
									{
										OFFSET 3.410492 0.000000 0.000000
										CHANNELS 3 Xrotation Yrotation Zrotation
										JOINT LeftHandMiddle3
										{
											OFFSET 3.312172 0.000000 0.000000
											CHANNELS 3 Xrotation Yrotation Zrotation
											End Site
											{
												OFFSET -1.150200 3.080154 0.400270
											}
										}
									}
								}
								JOINT LeftHandRing1
								{
									OFFSET 11.514786 -0.013176 -3.003090
									CHANNELS 3 Xrotation Yrotation Zrotation
									JOINT LeftHandRing2
									{
										OFFSET 3.053307 0.000000 0.000000
										CHANNELS 3 Xrotation Yrotation Zrotation
										JOINT LeftHandRing3
										{
											OFFSET 3.295807 0.000000 0.000000
											CHANNELS 3 Xrotation Yrotation Zrotation
											End Site
											{
												OFFSET -1.281006 3.013344 0.375733
											}
										}
									}
								}
								JOINT LeftHandPinky1
								{
									OFFSET 10.518692 -0.960396 -5.730441
									CHANNELS 3 Xrotation Yrotation Zrotation
									JOINT LeftHandPinky2
									{
										OFFSET 2.861649 0.000000 0.000000
										CHANNELS 3 Xrotation Yrotation Zrotation
										JOINT LeftHandPinky3
										{
											OFFSET 2.863380 0.000000 0.000000
											CHANNELS 3 Xrotation Yrotation Zrotation
											End Site
											{
												OFFSET -0.843597 2.711159 0.369971
											}
										}
									}
								}
							}
							JOINT LSleeve
							{
								OFFSET 6.676277 -0.344902 -1.011730
								CHANNELS 3 Xrotation Yrotation Zrotation
								End Site
								{
									OFFSET 0.000000 14.885353 0.000000
								}
							}
						}
					}
				}
				JOINT RightShoulder
				{
					OFFSET -6.197800 13.665199 -4.064700
					CHANNELS 3 Xrotation Yrotation Zrotation
					JOINT RightArm
					{
						OFFSET -7.778100 -0.187103 -1.709300
						CHANNELS 3 Xrotation Yrotation Zrotation
						JOINT RightForeArm
						{
							OFFSET -22.049376 0.000000 0.000000
							CHANNELS 3 Xrotation Yrotation Zrotation
							JOINT RightHand
							{
								OFFSET -23.009392 0.000000 0.000000
								CHANNELS 3 Xrotation Yrotation Zrotation
								JOINT RightHandThumb1
								{
									OFFSET -3.507191 -2.063065 3.133727
									CHANNELS 3 Xrotation Yrotation Zrotation
									JOINT RightHandThumb2
									{
										OFFSET -3.101337 -1.790558 1.790558
										CHANNELS 3 Xrotation Yrotation Zrotation
										JOINT RightHandThumb3
										{
											OFFSET -3.058640 -1.765907 1.765906
											CHANNELS 3 Xrotation Yrotation Zrotation
											End Site
											{
												OFFSET 0.415260 3.926476 -0.049563
											}
										}
									}
								}
								JOINT RightHandIndex1
								{
									OFFSET -11.334419 -0.901459 3.706815
									CHANNELS 3 Xrotation Yrotation Zrotation
									JOINT RightHandIndex2
									{
										OFFSET -3.283112 0.000000 0.000000
										CHANNELS 3 Xrotation Yrotation Zrotation
										JOINT RightHandIndex3
										{
											OFFSET -3.323853 0.000000 0.000000
											CHANNELS 3 Xrotation Yrotation Zrotation
											End Site
											{
												OFFSET 1.135597 3.097809 0.402452
											}
										}
									}
								}
								JOINT RightHandMiddle1
								{
									OFFSET -11.335861 0.000000 0.000000
									CHANNELS 3 Xrotation Yrotation Zrotation
									JOINT RightHandMiddle2
									{
										OFFSET -3.410492 0.000000 0.000000
										CHANNELS 3 Xrotation Yrotation Zrotation
										JOINT RightHandMiddle3
										{
											OFFSET -3.312172 0.000000 0.000000
											CHANNELS 3 Xrotation Yrotation Zrotation
											End Site
											{
												OFFSET 1.150200 3.080154 0.400270
											}
										}
									}
								}
								JOINT RightHandRing1
								{
									OFFSET -11.514786 -0.013176 -3.003090
									CHANNELS 3 Xrotation Yrotation Zrotation
									JOINT RightHandRing2
									{
										OFFSET -3.053307 0.000000 0.000000
										CHANNELS 3 Xrotation Yrotation Zrotation
										JOINT RightHandRing3
										{
											OFFSET -3.295807 0.000000 0.000000
											CHANNELS 3 Xrotation Yrotation Zrotation
											End Site
											{
												OFFSET 1.281006 3.013344 0.375733
											}
										}
									}
								}
								JOINT RightHandPinky1
								{
									OFFSET -10.518692 -0.960396 -5.730441
									CHANNELS 3 Xrotation Yrotation Zrotation
									JOINT RightHandPinky2
									{
										OFFSET -2.861649 0.000000 0.000000
										CHANNELS 3 Xrotation Yrotation Zrotation
										JOINT RightHandPinky3
										{
											OFFSET -2.863380 0.000000 0.000000
											CHANNELS 3 Xrotation Yrotation Zrotation
											End Site
											{
												OFFSET 0.843597 2.711159 0.369971
											}
										}
									}
								}
							}
							JOINT RSleeve
							{
								OFFSET -6.676277 -0.344902 -1.011730
								CHANNELS 3 Xrotation Yrotation Zrotation
								End Site
								{
									OFFSET 0.000000 14.885353 0.000000
								}
							}
						}
					}
				}
				JOINT Backpack
				{
					OFFSET 0.000000 -2.471497 36.677502
					CHANNELS 3 Xrotation Yrotation Zrotation
					End Site
					{
						OFFSET 0.000000 20.427315 0.000000
					}
				}
				JOINT Hood
				{
					OFFSET 0.000000 18.754097 -10.431000
					CHANNELS 3 Xrotation Yrotation Zrotation
					JOINT Hood1
					{
						OFFSET 0.000000 -5.011002 -7.685901
						CHANNELS 3 Xrotation Yrotation Zrotation
						End Site
						{
							OFFSET 0.000000 9.175140 0.000000
						}
					}
				}
				JOINT LHoodieString
				{
					OFFSET 5.250500 16.397697 3.089900
					CHANNELS 3 Xrotation Yrotation Zrotation
					JOINT LHoodieString1
					{
						OFFSET 0.257700 -6.364304 3.694600
						CHANNELS 3 Xrotation Yrotation Zrotation
						JOINT LHoodieString2
						{
							OFFSET 0.000000 -9.643799 2.679100
							CHANNELS 3 Xrotation Yrotation Zrotation
							End Site
							{
								OFFSET 0.000000 10.009018 0.000000
							}
						}
					}
				}
				JOINT RHoodieString
				{
					OFFSET -5.250500 16.397697 3.089900
					CHANNELS 3 Xrotation Yrotation Zrotation
					JOINT RHoodieString1
					{
						OFFSET -0.257700 -6.364304 3.694600
						CHANNELS 3 Xrotation Yrotation Zrotation
						JOINT RHoodieString2
						{
							OFFSET 0.000000 -9.643799 2.679100
							CHANNELS 3 Xrotation Yrotation Zrotation
							End Site
							{
								OFFSET 0.000000 10.009018 0.000000
							}
						}
					}
				}
			}
			JOINT LBackpack_Strap
			{
				OFFSET 15.223200 -7.719803 -6.610900
				CHANNELS 3 Xrotation Yrotation Zrotation
				End Site
				{
					OFFSET 0.000000 16.040596 0.000000
				}
			}
			JOINT RBackpack_Strap
			{
				OFFSET -15.223000 -7.719803 -6.610900
				CHANNELS 3 Xrotation Yrotation Zrotation
				End Site
				{
					OFFSET 0.000000 16.040596 0.000000
				}
			}
		}
	}
	JOINT BoyFacialAnim_Joint
	{
		OFFSET 1.000000 -82.208099 -1.550900
		CHANNELS 3 Xrotation Yrotation Zrotation
		End Site
		{
			OFFSET 0.000000 30.012791 0.000000
		}
	}
}
MOTION
Frames: 5
Frame Time: 0.033333
-0.744610 65.231461 1.569244 44.832805 3.644451 -5.015799 0.000001 -0.000001 0.000000 -88.381036 -13.757490 -6.928863 102.589592 9.736798 2.599876 3.152804 0.332605 -2.565343 -0.000001 -0.000002 -0.000001 -0.000001 -0.000002 -0.000001 -0.000002 0.000000 -0.000001 -64.931207 -5.560692 9.028067 75.197514 -17.737482 7.835917 -43.168688 2.088925 -4.987290 0.000001 -0.000000 0.000000 0.000001 -0.000000 0.000000 0.000002 0.000001 -0.000002 20.479216 0.547555 1.270576 7.515693 -0.660770 -0.296184 15.448100 -1.039467 0.047980 -28.133413 -2.131725 5.520332 -47.793699 0.030233 -0.115468 0.000000 -0.000000 0.000000 0.000000 -0.000000 0.000000 0.000000 -0.000000 0.000000 2.287918 11.409614 9.027334 15.936868 -37.828064 -55.221478 -19.039147 -25.397165 -17.479438 0.318795 2.391525 -22.331491 57.941806 3.450261 30.457460 8.441307 21.134135 3.687159 0.000001 -0.000000 -0.000005 0.393639 -8.706376 8.742875 -0.000037 -0.002461 -0.000988 -0.000001 0.000000 -0.000000 -0.914577 -3.276693 3.615575 -0.003235 -0.014875 -22.772510 -0.000000 -0.000001 -0.000002 -0.887765 -3.553130 -17.231186 -0.004267 -0.018072 -25.853010 -0.000003 -0.000002 -0.000002 -13.766352 -2.321811 -33.828223 -0.002490 -0.014563 -20.678780 -0.000003 0.000002 0.000004 0.000001 0.000003 -0.000001 3.008923 -7.227053 -1.559893 10.259180 25.512657 60.374255 -1.049088 30.006421 14.557047 2.774319 -13.936198 23.371026 57.942865 -3.450606 -30.455469 8.439442 -21.133666 -3.688589 -0.000001 0.000003 0.000004 0.393680 8.707074 -8.736258 0.000011 0.002718 0.000024 -0.000001 -0.000000 0.000002 -0.914475 3.277494 -3.618980 -0.004055 0.016180 22.775010 0.000004 -0.000000 -0.000000 -0.887582 3.552613 17.232856 -0.003984 0.018080 25.851822 0.000004 -0.000001 0.000002 -13.764935 2.319729 33.828489 -0.002171 0.016118 20.687144 -0.000002 0.000000 0.000004 -0.000000 0.000001 -0.000001 -0.000000 0.000000 0.000000 -0.000000 0.000000 0.000000 -0.000000 0.000000 0.000000 -0.000000 0.000000 0.000000 -0.000000 0.000000 0.000001 -0.000000 0.000000 0.000000 -0.000000 0.000000 0.000000 -0.000000 0.000000 0.000001 -0.000000 0.000000 0.000000 -0.000001 0.000000 0.000000 -0.000001 0.000000 0.000000 0.000001 -0.000001 0.000000 
-1.702509 70.786133 11.808865 40.505805 6.218009 1.756367 -0.000002 -0.000000 -0.000000 -105.827894 -5.182409 -4.615738 105.972140 8.280187 -0.358760 1.018632 -0.608211 3.078475 0.000001 0.000000 -0.000000 0.000001 0.000000 0.000000 0.000000 -0.000001 -0.000002 -48.657854 -4.143156 -0.026705 62.006773 -15.026083 9.757551 -26.091874 1.770887 -5.412784 -0.000000 0.000001 -0.000000 -0.000000 0.000001 -0.000000 -0.000001 -0.000001 0.000001 13.792978 5.394886 -7.559507 6.755323 2.717516 -2.284366 11.092653 2.693805 -1.861115 -10.082333 -8.676756 5.146243 -48.301568 -6.113946 0.080416 0.000000 -0.000000 0.000000 0.000000 -0.000000 0.000000 0.000000 -0.000000 0.000000 2.862372 9.488765 11.640695 37.101687 -32.655776 -30.276856 -20.384332 -43.093292 -17.425672 -0.922842 -1.586058 -9.436948 51.596414 4.396616 27.086889 7.733013 19.292310 3.483726 -0.000000 0.000000 0.000002 -0.450271 -8.120231 1.848439 -0.000088 -0.006038 -4.923874 -0.000000 0.000001 -0.000003 -1.202925 -2.940768 -4.786625 -0.003812 -0.016181 -24.726511 0.000001 0.000001 -0.000003 -1.155089 -3.158848 -24.430105 -0.004763 -0.019084 -27.405623 0.000001 0.000003 -0.000003 -12.884506 -0.736935 -41.552566 -0.003057 -0.016080 -22.905606 -0.000001 -0.000001 0.000001 -0.000002 0.000003 -0.000001 1.884998 -1.007141 -5.642577 -1.735561 18.153338 49.314526 -7.019246 40.722974 20.204004 -3.400085 -6.625887 16.930811 57.582941 -0.917529 -21.339700 8.439437 -21.133664 -3.688592 0.000003 0.000000 0.000000 0.391864 8.727084 19.237124 -0.001342 0.011968 12.920192 -0.000001 -0.000001 -0.000000 -0.918071 3.297246 24.354342 -0.004055 0.016178 22.775010 -0.000000 0.000001 0.000002 -0.897535 3.570101 45.206584 -0.003979 0.018078 25.851822 -0.000001 -0.000001 -0.000002 -13.779984 2.333046 61.802209 -0.002172 0.016115 20.687139 -0.000001 -0.000001 0.000000 0.000002 -0.000003 0.000003 -0.000001 0.000000 -0.000003 -0.000001 0.000000 -0.000003 -0.000001 0.000000 -0.000003 -0.000001 0.000000 -0.000003 -0.000001 0.000000 -0.000001 0.000001 0.000000 0.000001 -0.000001 0.000000 -0.000003 -0.000001 0.000000 -0.000001 0.000001 0.000000 0.000001 0.000000 -0.000000 0.000001 0.000000 -0.000000 0.000001 -0.000002 -0.000000 -0.000000 
-2.721589 77.578278 21.446432 37.303218 8.122933 8.017524 -0.000002 -0.000001 -0.000001 -120.418926 -0.783618 -0.512708 100.114679 9.304883 -5.149757 8.935587 0.163258 5.099038 0.000000 0.000002 -0.000001 0.000000 0.000002 -0.000000 -0.000001 -0.000001 -0.000001 -34.788995 -3.541343 -7.657543 42.437949 -12.429145 10.787616 5.620881 1.168999 -4.730440 -0.000002 0.000001 -0.000001 -0.000002 0.000001 -0.000001 -0.000004 0.000001 -0.000001 8.901279 7.902804 -14.644206 5.897691 4.367769 -4.132074 7.456103 4.675789 -3.705814 1.145369 -11.780663 -6.226102 -43.301296 -20.832256 6.790792 -0.000000 -0.000000 -0.000000 -0.000000 -0.000000 -0.000000 -0.000000 -0.000000 -0.000000 3.790834 8.600716 19.475690 53.058412 -25.977824 -22.277610 -10.771639 -46.885345 -15.203670 -0.456764 -4.781439 4.889855 36.989590 8.143740 20.241464 6.099931 15.055414 2.932343 0.000001 0.000001 -0.000004 -1.744639 -5.995701 -14.093713 -0.001415 -0.014178 -16.275246 -0.000001 0.000001 -0.000003 -1.448650 -1.919363 -24.324320 -0.005305 -0.019096 -29.232069 0.000004 -0.000001 0.000000 -1.367503 -2.058329 -41.192065 -0.006065 -0.021348 -30.985683 0.000003 0.000001 -0.000004 -9.384990 1.770914 -59.374001 -0.004622 -0.019464 -28.040302 -0.000002 -0.000001 -0.000000 0.000000 -0.000003 -0.000001 1.615324 8.956725 -9.263893 -14.133955 18.986635 38.017738 -1.178164 37.164111 23.420831 -7.641025 1.628239 20.655042 57.561604 0.965328 -12.335707 8.439444 -21.133659 -3.688593 -0.000006 0.000001 -0.000002 0.380770 8.743910 47.211917 -0.004741 0.020715 25.842292 -0.000002 0.000000 0.000002 -0.930548 3.313013 52.328169 -0.004057 0.016179 22.775010 0.000000 0.000002 -0.000002 -0.914561 3.580890 73.180737 -0.003977 0.018078 25.851829 -0.000000 0.000000 -0.000001 -13.799537 2.337745 89.776136 -0.002170 0.016114 20.687145 0.000001 -0.000002 -0.000000 0.000000 0.000000 0.000000 -0.000001 0.000000 -0.000000 -0.000001 0.000000 -0.000000 -0.000001 0.000000 -0.000000 -0.000001 0.000000 -0.000000 -0.000001 0.000000 -0.000000 0.000003 0.000000 -0.000002 -0.000001 0.000000 -0.000000 -0.000001 0.000000 -0.000000 0.000003 0.000000 -0.000002 -0.000002 -0.000000 -0.000001 -0.000002 -0.000000 -0.000001 -0.000002 -0.000001 -0.000001 
-3.512238 84.613953 30.521473 34.520391 7.772118 12.271280 0.000001 0.000000 -0.000000 -128.109227 -0.672608 5.603912 87.347929 11.363101 -11.647371 22.307178 1.505976 5.396633 -0.000000 -0.000000 0.000000 -0.000000 -0.000000 0.000000 0.000001 -0.000001 -0.000000 -22.687874 -5.431574 -10.318506 25.068515 -8.755611 7.813403 34.250766 1.398790 0.929567 -0.000001 -0.000001 0.000001 -0.000001 -0.000001 0.000001 0.000001 -0.000001 0.000000 6.028898 7.865704 -18.180172 5.190267 4.182576 -5.295242 5.232479 4.685170 -4.964270 22.016466 -14.222548 -5.209748 -47.589913 -24.780157 8.534069 0.000000 0.000000 0.000001 0.000000 0.000000 0.000001 0.000000 0.000000 0.000001 3.944380 8.453774 27.812100 61.415982 -21.494337 -26.150786 5.401113 -47.261805 -14.209426 0.286557 -7.132168 17.259321 20.700838 14.331386 14.675414 4.262295 10.352249 2.184107 -0.000001 0.000004 -0.000001 -1.621227 -2.722357 -32.067530 -0.004739 -0.022761 -28.929256 -0.000000 0.000001 -0.000002 -0.908631 -0.692506 -46.530227 -0.007222 -0.022208 -34.254676 -0.000001 0.000001 -0.000001 -0.855501 -0.772241 -60.303986 -0.007659 -0.023787 -34.976606 -0.000002 -0.000001 -0.000002 -3.969404 1.874086 -79.143096 -0.006701 -0.023085 -33.764217 -0.000001 -0.000002 -0.000002 -0.000001 -0.000000 0.000003 2.396926 18.054070 -11.595990 -20.685247 22.752142 24.650388 9.138803 27.893265 21.731010 -10.710822 8.590537 26.524252 57.561624 0.965322 -12.335703 8.439439 -21.133664 -3.688592 0.000003 -0.000000 -0.000001 0.380760 8.743912 47.211938 -0.004714 0.020701 25.842291 -0.000003 -0.000001 0.000003 -0.930532 3.313012 52.328162 -0.004055 0.016183 22.775011 -0.000001 0.000001 -0.000002 -0.914537 3.580879 73.180764 -0.003975 0.018080 25.851824 -0.000002 0.000002 0.000002 -13.799527 2.337733 89.776123 -0.002171 0.016121 20.687142 0.000001 -0.000001 0.000000 0.000001 -0.000000 -0.000001 -0.000000 -0.000000 0.000001 -0.000000 -0.000000 0.000001 -0.000000 -0.000000 0.000001 -0.000000 -0.000000 0.000001 -0.000000 -0.000000 0.000001 -0.000001 0.000000 0.000001 -0.000000 -0.000000 0.000001 -0.000000 -0.000000 0.000001 -0.000001 0.000000 0.000001 -0.000000 0.000000 0.000000 -0.000000 0.000000 0.000000 0.000001 0.000000 -0.000000 
-3.760817 90.606339 39.220360 31.387089 4.233479 13.842390 -0.000001 0.000000 0.000000 -128.353571 -2.296500 12.114087 71.385674 14.031311 -17.442059 35.702239 2.337509 5.498270 -0.000001 0.000001 -0.000000 -0.000001 0.000001 0.000000 0.000002 -0.000001 -0.000001 -19.432974 -7.586153 -11.158641 26.563832 -1.447553 3.947229 53.253158 3.239087 6.705417 -0.000000 -0.000001 -0.000001 -0.000000 -0.000001 -0.000001 0.000002 -0.000000 -0.000000 5.860565 6.431461 -17.944089 5.211894 2.876283 -5.375218 4.903330 3.407109 -5.196396 34.534178 -13.186214 0.189780 -49.390956 -19.060874 6.495036 0.000000 0.000000 -0.000000 0.000000 0.000000 -0.000000 0.000000 0.000000 -0.000000 3.328785 8.262645 32.150633 63.525028 -19.681252 -33.156088 21.273034 -52.241173 -11.392056 0.495595 -9.006072 23.848046 9.115099 19.431316 12.385988 2.957275 7.085293 1.577858 0.000003 0.000002 -0.000003 -0.012560 -0.028789 -45.504605 -0.008138 -0.028199 -37.759946 0.000001 -0.000001 -0.000005 -0.022385 -0.036946 -63.010442 -0.008728 -0.024238 -37.759734 -0.000002 0.000003 -0.000001 -0.029599 -0.040910 -74.625144 -0.008865 -0.025431 -37.761695 -0.000004 0.000001 -0.000004 -0.042292 -0.044478 -92.655799 -0.008369 -0.025463 -37.758693 0.000002 0.000001 0.000002 0.000003 -0.000000 0.000001 3.353413 21.884990 -12.144794 -23.622245 26.720538 12.957470 12.876357 21.174377 21.858301 -11.023367 14.194854 26.593664 57.561624 0.965320 -12.335731 8.439441 -21.133666 -3.688591 0.000000 0.000001 0.000002 0.380766 8.743912 47.211920 -0.004733 0.020702 25.842291 -0.000001 0.000001 0.000004 -0.930538 3.313019 52.328142 -0.004054 0.016180 22.775011 0.000002 0.000002 -0.000004 -0.914527 3.580867 73.180750 -0.003974 0.018079 25.851829 -0.000002 0.000001 -0.000001 -13.799521 2.337747 89.776109 -0.002174 0.016117 20.687142 0.000003 0.000000 -0.000001 -0.000001 -0.000000 0.000001 0.000001 -0.000002 0.000000 0.000001 -0.000002 0.000000 0.000001 -0.000002 0.000000 0.000001 -0.000002 0.000000 0.000001 -0.000002 -0.000000 -0.000000 0.000000 0.000000 0.000001 -0.000002 0.000000 0.000001 -0.000002 -0.000000 -0.000000 0.000000 0.000000 -0.000002 0.000001 -0.000001 -0.000002 0.000001 -0.000001 -0.000001 0.000000 0.000000 
